# xmcd CD database file
#
# Track frame offsets:
#	150
#	11865
#	22837
#	35647
#	50434
#	63301
#	75670
#	86300
#	99704
#	111059
#	123025
#	138277
#	151475
#	164571
#	177593
#	188034
#	202088
#	211943
#	225154
#	238609
#	252443
#	264420
#	276151
#	293929
#
# Disc length: 4091 seconds
#
# Revision: 4
# Processed by: cddbd v1.5.2PL0 Copyright (c) Steve Scherf et al.
# Submitted via: jetAudio 7
#
DISCID=4b0ff918
DTITLE=Sonny Boy Williams and Albert King - The Greatest Blues Legends CD
DTITLE=03 - Down and out and The Big Blues
DYEAR=1959
DGENRE=Blues
TTITLE0=Sonny Boy Williamson - Don't Start Me To Talkin'
TTITLE1=Sonny Boy Williamson - I Don't Know
TTITLE2=Sonny Boy Williamson - All My Love In Vain
TTITLE3=Sonny Boy Williamson - The Key (To Your Door)
TTITLE4=Sonny Boy Williamson - Keep It To Yourself
TTITLE5=Sonny Boy Williamson - Dissatisfied
TTITLE6=Sonny Boy Williamson - Fattening Frogs For Snakes
TTITLE7=Sonny Boy Williamson - Wake Up Baby
TTITLE8=Sonny Boy Williamson - Your Funeral And My Trial
TTITLE9=Sonny Boy Williamson - 99
TTITLE10=Sonny Boy Williamson - Cross My Heart
TTITLE11=Sonny Boy Williamson - Let Me Explain
TTITLE12=Albert King - Let's Have A Natural Ball
TTITLE13=Albert King - What Can I Do To Change Your Mind
TTITLE14=Albert King - I Get Evil
TTITLE15=Albert King - Had You Told It Like It Was (It Wouln't Be Like
TTITLE16=Albert King - This Morning
TTITLE17=Albert King - I Walked All Night Long
TTITLE18=Albert King - Don't Throw Your Love On Me So Strong
TTITLE19=Albert King - Travelin' To California
TTITLE20=Albert King - I've Made Nights By Myself
TTITLE21=Albert King - This Funny Feeling
TTITLE22=Albert King - Ooh-Ee Baby
TTITLE23=Albert King - Dyna Flow
EXTD=
EXTT0=
EXTT1=
EXTT2=
EXTT3=
EXTT4=
EXTT5=
EXTT6=
EXTT7=
EXTT8=
EXTT9=
EXTT10=
EXTT11=
EXTT12=
EXTT13=
EXTT14=
EXTT15=
EXTT16=
EXTT17=
EXTT18=
EXTT19=
EXTT20=
EXTT21=
EXTT22=
EXTT23=
PLAYORDER=
